{
	"patcher" : 	{
		"fileversion" : 1,
		"appversion" : 		{
			"major" : 7,
			"minor" : 2,
			"revision" : 1,
			"architecture" : "x64",
			"modernui" : 1
		}
,
		"rect" : [ 79.0, 79.0, 708.0, 513.0 ],
		"bglocked" : 0,
		"openinpresentation" : 0,
		"default_fontsize" : 12.0,
		"default_fontface" : 0,
		"default_fontname" : "Arial",
		"gridonopen" : 2,
		"gridsize" : [ 15.0, 15.0 ],
		"gridsnaponopen" : 2,
		"objectsnaponopen" : 0,
		"statusbarvisible" : 2,
		"toolbarvisible" : 1,
		"lefttoolbarpinned" : 0,
		"toptoolbarpinned" : 0,
		"righttoolbarpinned" : 0,
		"bottomtoolbarpinned" : 0,
		"toolbars_unpinned_last_save" : 0,
		"tallnewobj" : 0,
		"boxanimatetime" : 200,
		"enablehscroll" : 1,
		"enablevscroll" : 1,
		"devicewidth" : 0.0,
		"description" : "",
		"digest" : "",
		"tags" : "",
		"style" : "",
		"subpatcher_template" : "Snap to grid",
		"boxes" : [ 			{
				"box" : 				{
					"bubble" : 1,
					"id" : "obj-32",
					"linecount" : 5,
					"maxclass" : "comment",
					"numinlets" : 1,
					"numoutlets" : 0,
					"patching_rect" : [ 435.0, 420.0, 150.0, 78.0 ],
					"presentation_rect" : [ 429.0, 386.0, 0.0, 0.0 ],
					"style" : "",
					"text" : "... and output that value as an integer. The output value is displayed here in this integer box."
				}

			}
, 			{
				"box" : 				{
					"bubble" : 1,
					"id" : "obj-31",
					"linecount" : 6,
					"maxclass" : "comment",
					"numinlets" : 1,
					"numoutlets" : 0,
					"patching_rect" : [ 540.0, 315.0, 150.0, 91.0 ],
					"presentation_rect" : [ 535.0, 319.0, 0.0, 0.0 ],
					"style" : "",
					"text" : "This [counter] is an example of an object. Here, it receives a bang in its left inlet, causing it to increment its stored value by 1..."
				}

			}
, 			{
				"box" : 				{
					"bubble" : 1,
					"id" : "obj-30",
					"linecount" : 6,
					"maxclass" : "comment",
					"numinlets" : 1,
					"numoutlets" : 0,
					"patching_rect" : [ 420.0, 195.0, 156.0, 91.0 ],
					"presentation_rect" : [ 410.0, 234.0, 0.0, 0.0 ],
					"style" : "",
					"text" : "This is a button, or \"bang.\" Click on it to ouput a bang, a special type of trigger message that tells other Max objects \"do your thing!\""
				}

			}
, 			{
				"box" : 				{
					"bubble" : 1,
					"id" : "obj-27",
					"linecount" : 12,
					"maxclass" : "comment",
					"numinlets" : 1,
					"numoutlets" : 0,
					"patching_rect" : [ 45.0, 135.0, 189.0, 171.0 ],
					"presentation_rect" : [ 70.0, 109.0, 0.0, 0.0 ],
					"style" : "",
					"text" : "The red circle shows that this patch cord has a debugging Watchpoint. When debugging is turned on, data passing through a patch cord with a Watchpoint will interrupt the program to show you a visualization of data flow. Watchpoints can be added by right-clicking a patch cord and selecting \"Add Watchpoint - Break.\""
				}

			}
, 			{
				"box" : 				{
					"bubble" : 1,
					"bubblepoint" : 0.13,
					"id" : "obj-24",
					"linecount" : 5,
					"maxclass" : "comment",
					"numinlets" : 1,
					"numoutlets" : 0,
					"patching_rect" : [ 420.0, 45.0, 217.0, 78.0 ],
					"presentation_rect" : [ 413.0, 15.0, 0.0, 0.0 ],
					"style" : "",
					"text" : "message boxes can send any type of message (integers, floating point numbers (\"floats\"), strings of characters, etc.). in this case, the message box is sending an integer."
				}

			}
, 			{
				"box" : 				{
					"bubble" : 1,
					"id" : "obj-23",
					"linecount" : 2,
					"maxclass" : "comment",
					"numinlets" : 1,
					"numoutlets" : 0,
					"patching_rect" : [ 60.0, 345.0, 150.0, 37.0 ],
					"presentation_rect" : [ 201.0, 144.0, 0.0, 0.0 ],
					"style" : "",
					"text" : "integer boxes can also receive integers"
				}

			}
, 			{
				"box" : 				{
					"bubble" : 1,
					"bubblepoint" : 0.1,
					"id" : "obj-22",
					"linecount" : 2,
					"maxclass" : "comment",
					"numinlets" : 1,
					"numoutlets" : 0,
					"patching_rect" : [ 75.0, 45.0, 120.0, 37.0 ],
					"style" : "",
					"text" : "integer boxes can send integers..."
				}

			}
, 			{
				"box" : 				{
					"id" : "obj-16",
					"maxclass" : "message",
					"numinlets" : 2,
					"numoutlets" : 1,
					"outlettype" : [ "" ],
					"patching_rect" : [ 315.0, 45.0, 84.0, 22.0 ],
					"style" : "",
					"text" : "18002222222"
				}

			}
, 			{
				"box" : 				{
					"fontname" : "Arial",
					"fontsize" : 13.0,
					"id" : "obj-14",
					"maxclass" : "number",
					"numinlets" : 1,
					"numoutlets" : 2,
					"outlettype" : [ "", "bang" ],
					"parameter_enable" : 0,
					"patching_rect" : [ 15.0, 390.0, 165.0, 23.0 ],
					"presentation_rect" : [ 211.0, 317.0, 0.0, 0.0 ],
					"style" : ""
				}

			}
, 			{
				"box" : 				{
					"id" : "obj-13",
					"maxclass" : "number",
					"numinlets" : 1,
					"numoutlets" : 2,
					"outlettype" : [ "", "bang" ],
					"parameter_enable" : 0,
					"patching_rect" : [ 15.0, 45.0, 50.0, 22.0 ],
					"style" : ""
				}

			}
, 			{
				"box" : 				{
					"fontname" : "Arial",
					"fontsize" : 13.0,
					"id" : "obj-7",
					"maxclass" : "number",
					"numinlets" : 1,
					"numoutlets" : 2,
					"outlettype" : [ "", "bang" ],
					"parameter_enable" : 0,
					"patching_rect" : [ 375.0, 450.0, 50.0, 23.0 ],
					"style" : ""
				}

			}
, 			{
				"box" : 				{
					"id" : "obj-11",
					"maxclass" : "button",
					"numinlets" : 1,
					"numoutlets" : 1,
					"outlettype" : [ "bang" ],
					"patching_rect" : [ 375.0, 225.0, 24.0, 24.0 ],
					"presentation_rect" : [ 10.0, 157.0, 24.0, 24.0 ],
					"style" : ""
				}

			}
, 			{
				"box" : 				{
					"fontname" : "Arial",
					"fontsize" : 13.0,
					"id" : "obj-1",
					"maxclass" : "newobj",
					"numinlets" : 5,
					"numoutlets" : 4,
					"outlettype" : [ "int", "", "", "int" ],
					"patching_rect" : [ 375.0, 330.0, 142.0, 23.0 ],
					"style" : "",
					"text" : "counter"
				}

			}
 ],
		"lines" : [ 			{
				"patchline" : 				{
					"destination" : [ "obj-7", 0 ],
					"disabled" : 0,
					"hidden" : 0,
					"source" : [ "obj-1", 0 ],
					"watchpoint_flags" : 2,
					"watchpoint_id" : 4
				}

			}
, 			{
				"patchline" : 				{
					"destination" : [ "obj-1", 0 ],
					"disabled" : 0,
					"hidden" : 0,
					"source" : [ "obj-11", 0 ],
					"watchpoint_flags" : 2,
					"watchpoint_id" : 3
				}

			}
, 			{
				"patchline" : 				{
					"destination" : [ "obj-14", 0 ],
					"disabled" : 0,
					"hidden" : 0,
					"midpoints" : [ 24.5, 39.0, 24.5, 39.0 ],
					"source" : [ "obj-13", 0 ],
					"watchpoint_flags" : 2,
					"watchpoint_id" : 2
				}

			}
, 			{
				"patchline" : 				{
					"destination" : [ "obj-14", 0 ],
					"disabled" : 0,
					"hidden" : 0,
					"midpoints" : [ 324.5, 330.0, 24.5, 330.0 ],
					"source" : [ "obj-16", 0 ],
					"watchpoint_flags" : 2,
					"watchpoint_id" : 1
				}

			}
 ],
		"dependency_cache" : [  ],
		"autosave" : 0,
		"bgfillcolor_type" : "gradient",
		"bgfillcolor_color1" : [ 0.376471, 0.384314, 0.4, 1.0 ],
		"bgfillcolor_color2" : [ 0.290196, 0.309804, 0.301961, 1.0 ],
		"bgfillcolor_color" : [ 0.290196, 0.309804, 0.301961, 1.0 ],
		"bgfillcolor_angle" : 270.0,
		"bgfillcolor_proportion" : 0.39
	}

}
